# xmcd CD database file
#
# Track frame offsets:
#	150
#	21696
#	45052
#	60774
#	80595
#	96654
#	115190
#	134629
#	155205
#	172481
#	190152
#	208158
#	223253
#
# Disc length: 3430 seconds
#
# Revision: 1
# Processed by: cddbd v1.5.2PL0 Copyright (c) Steve Scherf et al.
# Submitted via: CDex 1.70beta2
#
DISCID=ca0d640d
DTITLE=Michael Wendler - Superstar
DYEAR=2006
DGENRE=Disco
TTITLE0=Wie tief muss ich fallen
TTITLE1=Prinzessin
TTITLE2=Schöner Mann
TTITLE3=Die Erde bebt
TTITLE4=Tu Me Fascinas
TTITLE5=Superstar
TTITLE6=180 Grad
TTITLE7=Heuchler
TTITLE8=Verdammte Liebe
TTITLE9=Vollidiot
TTITLE10=Sind wir am Ende
TTITLE11=Du bist nicht normal
TTITLE12=Der Delta-Park-Hit-Mix II
EXTD=YEAR: 2006
EXTT0=
EXTT1=
EXTT2=
EXTT3=
EXTT4=
EXTT5=
EXTT6=
EXTT7=
EXTT8=
EXTT9=
EXTT10=
EXTT11=
EXTT12=
PLAYORDER=
